<svg width="76" height="27" viewBox="0 0 76 27" fill="none" xmlns="http://www.w3.org/2000/svg">
<path d="M0.000453949 20.5C0.000453949 19.1193 1.12947 18 2.52219 18H16.0005V23H2.52219C1.12947 23 0.000453949 21.8807 0.000453949 20.5Z" fill="#3561FF"/>
<path d="M16 16L2.52174 16C1.12902 16 -1.21755e-07 14.8807 0 13.5C1.21755e-07 12.1193 1.12902 11 2.52174 11L16 11V16Z" fill="#EA526F"/>
<path d="M3 4H14.1304H16.6356C17.9414 4 19 5.04947 19 6.34405V6.65595C19 7.95053 17.9414 9 16.6356 9H14.1304H3V4Z" fill="#FFA800"/>
<path fill-rule="evenodd" clip-rule="evenodd" d="M35.171 1H38.6466V21.2982C38.6466 22.2482 37.8686 23.0183 36.9088 23.0183C36.1075 23.0183 35.4328 22.4814 35.2319 21.7511C34.0814 22.5552 32.6774 23.0275 31.162 23.0275C27.2604 23.0275 24.0975 19.8967 24.0975 16.0347C24.0975 12.1726 27.2604 9.0418 31.162 9.0418C32.6508 9.0418 34.0321 9.49769 35.171 10.2761V1ZM31.162 19.5872C29.1799 19.5872 27.5731 17.9967 27.5731 16.0347C27.5731 14.0727 29.1799 12.4822 31.162 12.4822C33.144 12.4822 34.7508 14.0727 34.7508 16.0347C34.7508 17.9967 33.144 19.5872 31.162 19.5872ZM56.9013 18.5712C56.3945 19.0729 55.7488 19.4145 55.0458 19.5529C54.3429 19.6913 53.6143 19.6203 52.9521 19.3488C52.29 19.0773 51.724 18.6175 51.3259 18.0277C50.9277 17.4378 50.7151 16.7443 50.7151 16.0348C50.7151 15.3254 50.9277 14.6319 51.3259 14.042C51.724 13.4521 52.29 12.9923 52.9521 12.7209C53.6143 12.4494 54.3429 12.3783 55.0458 12.5167C55.7488 12.6551 56.3945 12.9968 56.9013 13.4984L59.3589 11.0657C58.366 10.0829 57.101 9.41362 55.7239 9.14247C54.3468 8.87132 52.9193 9.01048 51.6221 9.54237C50.3249 10.0743 49.2161 10.975 48.436 12.1306C47.6559 13.2863 47.2396 14.6449 47.2396 16.0348C47.2396 17.4247 47.6559 18.7834 48.436 19.939C49.2161 21.0947 50.3249 21.9954 51.6221 22.5273C52.9193 23.0592 54.3468 23.1983 55.7239 22.9272C57.101 22.656 58.366 21.9867 59.3589 21.0039L56.9013 18.5712ZM67.2023 23.0276C63.3007 23.0276 60.1378 19.8968 60.1378 16.0347C60.1378 12.1727 63.3007 9.04186 67.2023 9.04186C71.1039 9.04186 74.2667 12.1727 74.2667 16.0347C74.2667 19.8968 71.1039 23.0276 67.2023 23.0276ZM67.2023 19.5872C65.2202 19.5872 63.6134 17.9967 63.6134 16.0347C63.6134 14.0727 65.2202 12.4822 67.2023 12.4822C69.1844 12.4822 70.7912 14.0727 70.7912 16.0347C70.7912 17.9967 69.1844 19.5872 67.2023 19.5872ZM41.6487 10.0772C41.6487 9.11749 42.4267 8.33945 43.3865 8.33945C44.3462 8.33945 45.1243 9.11749 45.1243 10.0772V23.0276H41.6487V10.0772ZM43.4254 1C42.3487 1 41.4758 1.87284 41.4758 2.94954C41.4758 4.02624 42.3487 4.89908 43.4254 4.89908H43.4653C44.542 4.89908 45.4148 4.02624 45.4148 2.94954C45.4148 1.87284 44.542 1 43.4653 1H43.4254Z" fill="white"/>
</svg>
